<?xml version="1.0" standalone="no"?>
<!DOCTYPE svg PUBLIC "-//W3C//DTD SVG 20010904//EN"
 "http://www.w3.org/TR/2001/REC-SVG-20010904/DTD/svg10.dtd">
<svg version="1.0" xmlns="http://www.w3.org/2000/svg"
 width="234.000000pt" height="210.000000pt" viewBox="0 0 234.000000 210.000000"
 preserveAspectRatio="xMidYMid meet">

<g transform="translate(0.000000,210.000000) scale(0.100000,-0.100000)"
fill="#000000" stroke="none">
<path d="M310 1580 l0 -510 75 0 75 0 2 303 3 302 115 -302 115 -303 68 0 67
0 0 510 0 510 -75 0 -75 0 -2 -294 -3 -294 -114 294 -115 294 -68 0 -68 0 0
-510z"/>
<path d="M1520 1820 l0 -90 -35 0 -35 0 0 -65 0 -65 35 0 35 0 0 -240 0 -241
25 -24 c22 -23 31 -25 125 -25 l100 0 0 65 0 65 -50 0 -50 0 0 200 0 200 50 0
50 0 0 65 0 65 -50 0 -50 0 0 90 0 90 -75 0 -75 0 0 -90z"/>
<path d="M969 1711 l-24 -19 0 -292 0 -292 24 -19 c21 -17 41 -19 193 -19 166
0 169 0 193 25 l25 24 0 281 0 281 -25 24 c-24 25 -27 25 -193 25 -152 0 -172
-2 -193 -19z m261 -311 l0 -210 -70 0 -70 0 0 210 0 210 70 0 70 0 0 -210z"/>
<path d="M1879 1711 l-24 -19 0 -292 0 -292 24 -19 c21 -17 41 -19 188 -19
161 0 164 0 188 25 22 22 25 32 25 105 l0 80 -70 0 -70 0 0 -50 0 -50 -70 0
-70 0 0 90 0 90 123 0 c163 0 157 -7 157 179 0 137 -1 143 -25 166 -24 25 -27
25 -188 25 -147 0 -167 -2 -188 -19z m261 -171 l0 -80 -70 0 -70 0 0 80 0 80
70 0 70 0 0 -80z"/>
<path d="M50 1150 l0 -80 75 0 75 0 0 80 0 80 -75 0 -75 0 0 -80z"/>
<path d="M796 929 c-24 -19 -26 -26 -26 -100 l0 -79 70 0 70 0 0 45 0 45 70 0
70 0 0 -75 0 -75 -120 0 c-115 0 -122 -1 -145 -25 -24 -23 -25 -28 -25 -175 0
-147 1 -152 25 -175 29 -29 62 -31 180 -10 44 8 81 15 83 15 1 0 2 -7 2 -15 0
-12 14 -15 70 -15 l70 0 0 305 0 306 -25 24 c-24 24 -28 25 -183 25 -146 0
-162 -2 -186 -21z m254 -423 c0 -97 0 -96 -91 -96 l-59 0 0 90 0 90 75 0 75 0
0 -84z"/>
<path d="M1290 500 l0 -450 75 0 75 0 0 119 0 119 103 4 c112 4 141 15 174 65
16 24 18 58 21 269 5 334 2 339 -168 315 -47 -7 -95 -15 -107 -18 -17 -4 -23
-1 -23 11 0 13 -13 16 -75 16 l-75 0 0 -450z m290 132 c0 -133 -4 -192 -12
-200 -7 -7 -38 -12 -70 -12 l-58 0 0 200 0 200 70 0 70 0 0 -188z"/>
<path d="M1840 500 l0 -450 75 0 75 0 0 119 0 119 103 4 c112 4 141 15 174 65
16 24 18 58 21 269 5 334 2 339 -168 315 -47 -7 -95 -15 -107 -18 -17 -4 -23
-1 -23 11 0 13 -13 16 -75 16 l-75 0 0 -450z m290 132 c0 -133 -4 -192 -12
-200 -7 -7 -38 -12 -70 -12 l-58 0 0 200 0 200 70 0 70 0 0 -188z"/>
</g>
</svg>
